<?xml version="1.0" encoding="utf-8"?>
<!-- Generator: Adobe Illustrator 26.1.0, SVG Export Plug-In . SVG Version: 6.00 Build 0)  -->
<svg version="1.1" id="marker" xmlns="http://www.w3.org/2000/svg" xmlns:xlink="http://www.w3.org/1999/xlink" x="0px" y="0px"
	 viewBox="0 0 20 32" style="enable-background:new 0 0 20 32;" xml:space="preserve">
<style type="text/css">
	.st0{opacity:0.3;fill:#C4C4C4;enable-background:new    ;}
	.st1{opacity:0.3;}
	.st2{fill-rule:evenodd;clip-rule:evenodd;fill:#BFBFBF;}
	.st3{fill:#F84D4D;stroke:#951212;stroke-width:0.5;}
	.st4{fill:#FFFFFF;stroke:#951212;stroke-width:0.5;}
	.st5{fill:none;}
</style>
<g id="mapbox-marker-icon">
	<g id="icon">
		<ellipse id="shadow" class="st0" cx="10" cy="27" rx="9" ry="5"/>
		<g id="mask" class="st1">
			<g id="group">
				<path id="shadow-2" class="st2" d="M10,32c5,0,9-2.2,9-5s-4-5-9-5s-9,2.2-9,5S5,32,10,32z"/>
			</g>
		</g>
		<path id="color" class="st3" d="M19.2,10.4c-0.1,1.8-0.6,3.6-1.5,5.2c-0.9,1.9-2,3.8-3.2,5.5c-1.2,1.7-2.4,3.3-3.3,4.4
			c-0.4,0.6-0.8,1-1.1,1.3C10.1,27,10.1,27,10,27.1C9.9,27,9.9,27,9.8,26.9c-0.3-0.3-0.6-0.8-1.1-1.3c-0.9-1.1-2.1-2.7-3.3-4.4
			c-1.2-1.8-2.3-3.6-3.2-5.6c-0.8-1.6-1.3-3.4-1.5-5.2c-0.1-5.2,4-9.5,9.2-9.6C15.2,0.9,19.4,5.2,19.2,10.4z"/>
		<path id="circle" class="st4" d="M17,10c0,3.8-3.1,6.9-6.9,6.9c-3.8,0-6.9-3.1-6.9-6.9S6.2,3,10,3C13.8,3,17,6.1,17,10
			C17,10,17,10,17,10z"/>
	</g>
</g>
<rect class="st5" width="20" height="48"/>
</svg>
